<svg width="33" height="33" viewBox="0 0 33 33" fill="none" xmlns="http://www.w3.org/2000/svg">
<g clip-path="url(#clip0_4221_79)">
<path d="M28.6189 1.3629H4.08842C3.0041 1.3629 1.9642 1.79364 1.19747 2.56037C0.430743 3.3271 0 4.367 0 5.45132L0 31.3446H32.7074V5.45132C32.7074 4.367 32.2766 3.3271 31.5099 2.56037C30.7432 1.79364 29.7033 1.3629 28.6189 1.3629ZM4.08842 4.08851H28.6189C28.9804 4.08851 29.327 4.23209 29.5826 4.48767C29.8382 4.74325 29.9817 5.08988 29.9817 5.45132V9.53974H2.72561V5.45132C2.72561 5.08988 2.86919 4.74325 3.12477 4.48767C3.38035 4.23209 3.72698 4.08851 4.08842 4.08851ZM2.72561 28.619V12.2654H29.9817V28.619H2.72561ZM6.81403 16.3538H25.8933V19.0794H6.81403V16.3538ZM6.81403 21.805H20.4421V24.5306H6.81403V21.805ZM4.08842 6.81413C4.08842 6.54459 4.16835 6.2811 4.31809 6.05699C4.46784 5.83288 4.68068 5.6582 4.9297 5.55506C5.17872 5.45191 5.45274 5.42492 5.7171 5.4775C5.98145 5.53009 6.22428 5.65988 6.41488 5.85048C6.60547 6.04107 6.73526 6.2839 6.78785 6.54826C6.84043 6.81261 6.81344 7.08663 6.71029 7.33565C6.60715 7.58467 6.43247 7.79751 6.20836 7.94726C5.98425 8.097 5.72076 8.17693 5.45123 8.17693C5.08979 8.17693 4.74315 8.03335 4.48758 7.77777C4.232 7.5222 4.08842 7.17556 4.08842 6.81413ZM8.17684 6.81413C8.17684 6.54459 8.25677 6.2811 8.40651 6.05699C8.55626 5.83288 8.7691 5.6582 9.01812 5.55506C9.26714 5.45191 9.54116 5.42492 9.80552 5.4775C10.0699 5.53009 10.3127 5.65988 10.5033 5.85048C10.6939 6.04107 10.8237 6.2839 10.8763 6.54826C10.9289 6.81261 10.9019 7.08663 10.7987 7.33565C10.6956 7.58467 10.5209 7.79751 10.2968 7.94726C10.0727 8.097 9.80918 8.17693 9.53965 8.17693C9.17821 8.17693 8.83157 8.03335 8.576 7.77777C8.32042 7.5222 8.17684 7.17556 8.17684 6.81413ZM12.2653 6.81413C12.2653 6.54459 12.3452 6.2811 12.4949 6.05699C12.6447 5.83288 12.8575 5.6582 13.1065 5.55506C13.3556 5.45191 13.6296 5.42492 13.8939 5.4775C14.1583 5.53009 14.4011 5.65988 14.5917 5.85048C14.7823 6.04107 14.9121 6.2839 14.9647 6.54826C15.0173 6.81261 14.9903 7.08663 14.8871 7.33565C14.784 7.58467 14.6093 7.79751 14.3852 7.94726C14.1611 8.097 13.8976 8.17693 13.6281 8.17693C13.2666 8.17693 12.92 8.03335 12.6644 7.77777C12.4088 7.5222 12.2653 7.17556 12.2653 6.81413Z" fill="#374957"/>
</g>
<defs>
<clipPath id="clip0_4221_79">
<rect width="32.7074" height="32.7074" fill="white"/>
</clipPath>
</defs>
</svg>
