<svg width="33" height="33" viewBox="0 0 33 33" fill="none" xmlns="http://www.w3.org/2000/svg">
<g clip-path="url(#clip0_4221_77)">
<path d="M31.5096 9.70604L28.2198 6.41486L30.9454 3.68925L29.0184 1.76224L26.2928 4.48785L23.0029 1.19804C22.6233 0.818317 22.1726 0.517105 21.6765 0.311599C21.1804 0.106093 20.6487 0.000320435 20.1117 0.000320435C19.5748 0.000320435 19.0431 0.106093 18.547 0.311599C18.0509 0.517105 17.6002 0.818317 17.2206 1.19804L13.3665 5.05205L19.5469 11.2337L11.2337 19.5469L5.05206 13.3665L1.19804 17.2206C0.431581 17.9872 0.00100708 19.027 0.00100708 20.1111C0.00100708 21.1952 0.431581 22.2349 1.19804 23.0016L4.48786 26.2928L1.76224 29.0184L3.68925 30.9454L6.41486 28.2198L9.70468 31.5096C10.0843 31.8893 10.5351 32.1905 11.0311 32.396C11.5272 32.6015 12.0589 32.7073 12.5959 32.7073C13.1328 32.7073 13.6645 32.6015 14.1606 32.396C14.6567 32.1905 15.1074 31.8893 15.4871 31.5096L19.3411 27.6556L13.1608 21.4739L21.4739 13.1608L27.6542 19.3411L31.5082 15.4871C32.2747 14.7204 32.7053 13.6807 32.7053 12.5965C32.7053 11.5124 32.2747 10.4727 31.5082 9.70604H31.5096ZM13.5601 29.5826C13.4335 29.7093 13.2832 29.8098 13.1177 29.8784C12.9523 29.947 12.775 29.9823 12.5959 29.9823C12.4168 29.9823 12.2394 29.947 12.074 29.8784C11.9086 29.8098 11.7583 29.7093 11.6317 29.5826L3.12505 21.0746C2.86956 20.819 2.72604 20.4724 2.72604 20.1111C2.72604 19.7497 2.86956 19.4031 3.12505 19.1476L5.05206 17.2206L15.4871 27.6556L13.5601 29.5826ZM29.5826 13.5587L27.6556 15.4871L17.2206 5.05205L19.1476 3.12504C19.2741 2.99834 19.4244 2.89782 19.5899 2.82923C19.7553 2.76065 19.9327 2.72535 20.1117 2.72535C20.2908 2.72535 20.4682 2.76065 20.6336 2.82923C20.7991 2.89782 20.9494 2.99834 21.0759 3.12504L29.5826 11.633C29.8376 11.8886 29.9809 12.2348 29.9809 12.5959C29.9809 12.9569 29.8376 13.3032 29.5826 13.5587Z" fill="#374957"/>
</g>
<defs>
<clipPath id="clip0_4221_77">
<rect width="32.7074" height="32.7074" fill="white"/>
</clipPath>
</defs>
</svg>
