<svg width="33" height="33" viewBox="0 0 33 33" fill="none" xmlns="http://www.w3.org/2000/svg">
<g clip-path="url(#clip0_4243_82)">
<path d="M20.4426 32.7073H12.2658V27.9198C10.8447 27.417 9.52854 26.6566 8.38316 25.6766L4.23478 28.0738L0.146362 20.9872L4.29338 18.5955C4.02097 17.1133 4.02097 15.594 4.29338 14.1118L0.146362 11.7201L4.23478 4.63353L8.38316 7.0307C9.52854 6.05074 10.8447 5.29031 12.2658 4.78752V-1.52588e-05H20.4426V4.78752C21.8637 5.29031 23.1799 6.05074 24.3253 7.0307L28.4737 4.63353L32.5621 11.7201L28.4151 14.1118C28.6875 15.594 28.6875 17.1133 28.4151 18.5955L32.5621 20.9872L28.4737 28.0738L24.3253 25.678C23.1798 26.6575 21.8636 27.4174 20.4426 27.9198V32.7073ZM14.9914 29.9817H17.717V25.8565L18.7405 25.5921C20.4195 25.1572 21.9477 24.2717 23.1601 23.0314L23.9001 22.2778L27.4747 24.3424L28.8375 21.9821L25.267 19.9201L25.5477 18.9035C26.0092 17.2312 26.0092 15.4652 25.5477 13.7929L25.267 12.7763L28.8375 10.7144L27.4747 8.35399L23.9001 10.4241L23.1601 9.67591C21.9471 8.43759 20.4189 7.55405 18.7405 7.12065L17.717 6.85081V2.7256H14.9914V6.85081L13.9679 7.1152C12.289 7.55014 10.7607 8.4356 9.54836 9.67591L8.80836 10.4295L5.23372 8.35944L3.87091 10.7198L7.44147 12.7817L7.16073 13.7984C6.69922 15.4707 6.69922 17.2367 7.16073 18.9089L7.44147 19.9256L3.87091 21.9875L5.23372 24.3479L8.80836 22.2832L9.54836 23.0369C10.7614 24.2752 12.2895 25.1587 13.9679 25.5921L14.9914 25.8565V29.9817ZM16.3542 21.8049C15.2761 21.8049 14.2221 21.4852 13.3257 20.8862C12.4292 20.2872 11.7305 19.4358 11.3179 18.4398C10.9054 17.4437 10.7974 16.3476 11.0077 15.2902C11.2181 14.2327 11.7373 13.2614 12.4996 12.4991C13.262 11.7367 14.2333 11.2175 15.2907 11.0072C16.3482 10.7968 17.4442 10.9048 18.4403 11.3174C19.4364 11.73 20.2878 12.4287 20.8867 13.3251C21.4857 14.2216 21.8054 15.2755 21.8054 16.3537C21.8054 17.7994 21.2311 19.186 20.2088 20.2083C19.1865 21.2306 17.8 21.8049 16.3542 21.8049ZM16.3542 13.628C15.8151 13.628 15.2882 13.7879 14.8399 14.0874C14.3917 14.3869 14.0424 14.8126 13.8361 15.3106C13.6298 15.8087 13.5758 16.3567 13.681 16.8854C13.7861 17.4141 14.0457 17.8998 14.4269 18.281C14.8081 18.6621 15.2938 18.9217 15.8225 19.0269C16.3512 19.1321 16.8992 19.0781 17.3973 18.8718C17.8953 18.6655 18.321 18.3162 18.6205 17.8679C18.92 17.4197 19.0798 16.8927 19.0798 16.3537C19.0798 15.6308 18.7927 14.9375 18.2815 14.4264C17.7704 13.9152 17.0771 13.628 16.3542 13.628Z" fill="#374957"/>
</g>
<defs>
<clipPath id="clip0_4243_82">
<rect width="32.7074" height="32.7074" fill="white"/>
</clipPath>
</defs>
</svg>
