<svg width="34" height="34" viewBox="0 0 34 34" fill="none" xmlns="http://www.w3.org/2000/svg">
<g clip-path="url(#clip0_4238_79)">
<path d="M18.6555 1.16525C18.1418 0.7029 17.4751 0.447067 16.784 0.447067C16.0929 0.447067 15.4263 0.7029 14.9126 1.16525L0 14.5869V29.1331C0 30.3201 0.47155 31.4585 1.31091 32.2979C2.15028 33.1373 3.2887 33.6088 4.47574 33.6088H29.0923C30.2794 33.6088 31.4178 33.1373 32.2572 32.2979C33.0965 31.4585 33.5681 30.3201 33.5681 29.1331V14.5869L18.6555 1.16525ZM20.98 30.8073H12.588V23.7775C12.588 22.6647 13.0301 21.5974 13.817 20.8105C14.6039 20.0236 15.6712 19.5815 16.784 19.5815C17.8969 19.5815 18.9642 20.0236 19.7511 20.8105C20.538 21.5974 20.98 22.6647 20.98 23.7775V30.8073ZM30.7707 29.1289C30.7707 29.574 30.5939 30.0009 30.2791 30.3157C29.9644 30.6304 29.5375 30.8073 29.0923 30.8073H23.7774V23.7775C23.7774 21.9228 23.0406 20.144 21.7291 18.8325C20.4176 17.521 18.6388 16.7842 16.784 16.7842C14.9293 16.7842 13.1505 17.521 11.839 18.8325C10.5275 20.144 9.79069 21.9228 9.79069 23.7775V30.8073H4.47574C4.0306 30.8073 3.60369 30.6304 3.28893 30.3157C2.97417 30.0009 2.79734 29.574 2.79734 29.1289V15.8317L16.784 3.24367L30.7707 15.8317V29.1289Z" fill="#374957"/>
</g>
<defs>
<clipPath id="clip0_4238_79">
<rect width="33.5681" height="33.5681" fill="white"/>
</clipPath>
</defs>
</svg>
